<svg width="50" height="51" viewBox="0 0 50 51" fill="none" xmlns="http://www.w3.org/2000/svg">
<rect y="0.5" width="50" height="50" rx="25" fill="white"/>
<path d="M33.2475 12.7586C33.2475 12.5598 33.1685 12.3691 33.0279 12.2285C32.8873 12.0879 32.6966 12.0089 32.4978 12.0089H28.749C26.8613 11.9148 25.0131 12.5718 23.6083 13.8361C22.2034 15.1005 21.3561 16.8695 21.2515 18.7566V22.8053H17.5027C17.3038 22.8053 17.1131 22.8843 16.9725 23.0249C16.8319 23.1655 16.7529 23.3562 16.7529 23.5551V27.4538C16.7529 27.6526 16.8319 27.8433 16.9725 27.9839C17.1131 28.1246 17.3038 28.2035 17.5027 28.2035H21.2515V38.2502C21.2515 38.4491 21.3304 38.6398 21.471 38.7804C21.6117 38.921 21.8024 39 22.0012 39H26.4997C26.6986 39 26.8893 38.921 27.0299 38.7804C27.1705 38.6398 27.2495 38.4491 27.2495 38.2502V28.2035H31.1782C31.3449 28.2059 31.5077 28.1527 31.6408 28.0522C31.7738 27.9517 31.8696 27.8097 31.913 27.6487L32.9926 23.75C33.0224 23.6392 33.0264 23.5231 33.0043 23.4105C32.9822 23.2979 32.9345 23.1919 32.865 23.1007C32.7955 23.0094 32.7059 22.9353 32.6033 22.8841C32.5006 22.8329 32.3876 22.806 32.2728 22.8053H27.2495V18.7566C27.2868 18.3855 27.4611 18.0416 27.7384 17.792C28.0156 17.5425 28.376 17.4052 28.749 17.4071H32.4978C32.6966 17.4071 32.8873 17.3281 33.0279 17.1875C33.1685 17.0469 33.2475 16.8562 33.2475 16.6573V12.7586Z" fill="black"/>
</svg>
