<svg width="50" height="51" viewBox="0 0 50 51" fill="none" xmlns="http://www.w3.org/2000/svg">
<rect y="0.5" width="50" height="50" rx="25" fill="white"/>
<path d="M25.0029 18.8339C21.3139 18.8339 18.3383 21.8102 18.3383 25.5C18.3383 29.1898 21.3139 32.1661 25.0029 32.1661C28.6919 32.1661 31.6675 29.1898 31.6675 25.5C31.6675 21.8102 28.6919 18.8339 25.0029 18.8339ZM25.0029 29.8338C22.619 29.8338 20.67 27.8903 20.67 25.5C20.67 23.1097 22.6132 21.1662 25.0029 21.1662C27.3926 21.1662 29.3358 23.1097 29.3358 25.5C29.3358 27.8903 27.3868 29.8338 25.0029 29.8338ZM33.4946 18.5613C33.4946 19.4257 32.7986 20.1161 31.9401 20.1161C31.0759 20.1161 30.3856 19.4199 30.3856 18.5613C30.3856 17.7026 31.0817 17.0064 31.9401 17.0064C32.7986 17.0064 33.4946 17.7026 33.4946 18.5613ZM37.9086 20.1393C37.81 18.0565 37.3344 16.2116 35.8089 14.6916C34.2892 13.1715 32.4447 12.6958 30.3624 12.5914C28.2163 12.4695 21.7837 12.4695 19.6376 12.5914C17.5611 12.69 15.7166 13.1657 14.1911 14.6858C12.6656 16.2058 12.1958 18.0507 12.0914 20.1335C11.9695 22.2801 11.9695 28.7141 12.0914 30.8607C12.19 32.9435 12.6656 34.7884 14.1911 36.3084C15.7166 37.8285 17.5553 38.3042 19.6376 38.4086C21.7837 38.5305 28.2163 38.5305 30.3624 38.4086C32.4447 38.31 34.2892 37.8343 35.8089 36.3084C37.3286 34.7884 37.8042 32.9435 37.9086 30.8607C38.0305 28.7141 38.0305 22.2859 37.9086 20.1393ZM35.1361 33.164C34.6837 34.3011 33.8078 35.1771 32.6651 35.6354C30.954 36.3142 26.8938 36.1576 25.0029 36.1576C23.112 36.1576 19.046 36.3084 17.3407 35.6354C16.2038 35.1829 15.3279 34.3069 14.8697 33.164C14.1911 31.4525 14.3477 27.3913 14.3477 25.5C14.3477 23.6087 14.1969 19.5417 14.8697 17.836C15.3221 16.6989 16.198 15.8229 17.3407 15.3646C19.0518 14.6858 23.112 14.8424 25.0029 14.8424C26.8938 14.8424 30.9598 14.6916 32.6651 15.3646C33.802 15.8171 34.6779 16.6931 35.1361 17.836C35.8147 19.5475 35.6581 23.6087 35.6581 25.5C35.6581 27.3913 35.8147 31.4583 35.1361 33.164Z" fill="black"/>
</svg>
