<svg width="165" height="55" viewBox="0 0 165 55" fill="none" xmlns="http://www.w3.org/2000/svg">
<g clip-path="url(#clip0_1_272)">
<path fill-rule="evenodd" clip-rule="evenodd" d="M58.0161 -3.01351C59.3049 -1.72478 59.3049 0.364669 58.0161 1.6534L43.0638 16.6057C41.7751 17.8944 39.6856 17.8944 38.3969 16.6057C37.1081 15.3169 37.1081 13.2275 38.3969 11.9388L53.3492 -3.01351C54.638 -4.30224 56.7274 -4.30224 58.0161 -3.01351Z" fill="white"/>
<path fill-rule="evenodd" clip-rule="evenodd" d="M35.7115 19.2911C37.0002 20.5798 37.0002 22.6692 35.7115 23.958L31.1898 28.4797C29.901 29.7684 27.8116 29.7684 26.5228 28.4797C25.2341 27.1909 25.2341 25.1015 26.5228 23.8127L31.0445 19.2911C32.3333 18.0023 34.4227 18.0023 35.7115 19.2911Z" fill="white"/>
<path fill-rule="evenodd" clip-rule="evenodd" d="M23.8345 31.1656C25.1232 32.4543 25.1232 34.5437 23.8345 35.8325L8.88216 50.7848C7.59342 52.0735 5.50397 52.0735 4.21523 50.7848C2.9265 49.496 2.9265 47.4066 4.21523 46.1178L19.1676 31.1656C20.4563 29.8768 22.5458 29.8768 23.8345 31.1656Z" fill="white"/>
<path fill-rule="evenodd" clip-rule="evenodd" d="M57.9195 13.9803C59.2082 15.269 59.2082 17.3584 57.9195 18.6472L42.9671 33.5995C41.6784 34.8882 39.5889 34.8882 38.3002 33.5995C37.0115 32.3107 37.0115 30.2213 38.3002 28.9325L53.2525 13.9803C54.5413 12.6915 56.6307 12.6915 57.9195 13.9803Z" fill="white"/>
<path fill-rule="evenodd" clip-rule="evenodd" d="M35.6118 36.2851C36.9006 37.5738 36.9006 39.6633 35.6118 40.952L31.0902 45.4737C29.8014 46.7624 27.712 46.7624 26.4232 45.4737C25.1345 44.1849 25.1345 42.0955 26.4232 40.8068L30.9449 36.2851C32.2337 34.9963 34.3231 34.9963 35.6118 36.2851Z" fill="white"/>
<path fill-rule="evenodd" clip-rule="evenodd" d="M23.7368 48.1596C25.0256 49.4483 25.0256 51.5378 23.7368 52.8265L8.7845 67.7788C7.49577 69.0675 5.40631 69.0675 4.11758 67.7788C2.82884 66.49 2.82884 64.4006 4.11758 63.1119L19.0699 48.1596C20.3587 46.8709 22.4481 46.8709 23.7368 48.1596Z" fill="white"/>
<path fill-rule="evenodd" clip-rule="evenodd" d="M36.5992 1.50468C37.8879 2.79341 37.8879 4.88286 36.5992 6.17159L21.6468 21.1239C20.3581 22.4126 18.2686 22.4126 16.9799 21.1239C15.6911 19.8351 15.6911 17.7457 16.9799 16.457L31.9322 1.50468C33.221 0.215949 35.3104 0.215949 36.5992 1.50468Z" fill="white"/>
<path fill-rule="evenodd" clip-rule="evenodd" d="M14.2935 23.8092C15.5822 25.098 15.5822 27.1874 14.2935 28.4762L9.77179 32.9978C8.48306 34.2866 6.3936 34.2866 5.10486 32.9978C3.81613 31.7091 3.81613 29.6197 5.10486 28.3309L9.62656 23.8092C10.9153 22.5205 13.0048 22.5205 14.2935 23.8092Z" fill="white"/>
<path fill-rule="evenodd" clip-rule="evenodd" d="M2.41751 35.6835C3.70625 36.9722 3.70625 39.0617 2.41751 40.3504L-12.5348 55.3027C-13.8236 56.5914 -15.913 56.5914 -17.2018 55.3027C-18.4905 54.014 -18.4905 51.9245 -17.2018 50.6358L-2.24941 35.6835C-0.960677 34.3948 1.12878 34.3948 2.41751 35.6835Z" fill="white"/>
<path fill-rule="evenodd" clip-rule="evenodd" d="M24.5523 -3.34493C25.841 -2.0562 25.841 0.033249 24.5523 1.32198L20.0306 5.84366C18.7418 7.1324 16.6524 7.1324 15.3637 5.84367C14.0749 4.55494 14.0749 2.46549 15.3637 1.17676L19.8854 -3.34493C21.1741 -4.63366 23.2635 -4.63366 24.5523 -3.34493Z" fill="white"/>
<path fill-rule="evenodd" clip-rule="evenodd" d="M12.6773 8.52934C13.966 9.81807 13.966 11.9075 12.6773 13.1962L-2.27507 28.1485C-3.5638 29.4373 -5.65326 29.4373 -6.94199 28.1485C-8.23073 26.8598 -8.23073 24.7704 -6.94199 23.4816L8.01035 8.52934C9.29909 7.24061 11.3885 7.24061 12.6773 8.52934Z" fill="white"/>
<path fill-rule="evenodd" clip-rule="evenodd" d="M56.1626 32.6336C57.4514 33.9223 57.4514 36.0118 56.1626 37.3005L51.6409 41.8222C50.3522 43.1109 48.2627 43.1109 46.974 41.8222C45.6853 40.5335 45.6853 38.444 46.974 37.1553L51.4957 32.6336C52.7844 31.3449 54.8739 31.3449 56.1626 32.6336Z" fill="white"/>
<path fill-rule="evenodd" clip-rule="evenodd" d="M44.2867 44.5081C45.5754 45.7968 45.5754 47.8863 44.2867 49.175L29.3343 64.1273C28.0456 65.416 25.9561 65.416 24.6674 64.1273C23.3786 62.8386 23.3786 60.7491 24.6674 59.4604L39.6197 44.5081C40.9085 43.2194 42.9979 43.2194 44.2867 44.5081Z" fill="white"/>
</g>
<path d="M72.2334 39.6677V15.5522H77.3696V35.445H87.1946V39.6677H72.2334Z" fill="white"/>
<path d="M113.406 27.577C113.406 29.4354 113.174 31.1289 112.71 32.6574C112.246 34.1749 111.539 35.4835 110.589 36.5832C109.65 37.6828 108.457 38.5296 107.01 39.1234C105.563 39.7062 103.851 39.9976 101.874 39.9976C99.8971 39.9976 98.185 39.7062 96.738 39.1234C95.2911 38.5296 94.0926 37.6828 93.1427 36.5832C92.2038 35.4835 91.5024 34.1694 91.0385 32.6409C90.5746 31.1124 90.3426 29.4134 90.3426 27.544C90.3426 25.0478 90.7513 22.8759 91.5687 21.0285C92.3971 19.1701 93.6674 17.7296 95.3794 16.7069C97.0915 15.6842 99.2675 15.1729 101.907 15.1729C104.536 15.1729 106.696 15.6842 108.386 16.7069C110.087 17.7296 111.346 19.1701 112.163 21.0285C112.992 22.8869 113.406 25.0698 113.406 27.577ZM95.7274 27.577C95.7274 29.2595 95.9372 30.711 96.357 31.9316C96.7877 33.1412 97.456 34.076 98.3617 34.7358C99.2675 35.3845 100.438 35.7089 101.874 35.7089C103.332 35.7089 104.514 35.3845 105.42 34.7358C106.326 34.076 106.983 33.1412 107.391 31.9316C107.811 30.711 108.021 29.2595 108.021 27.577C108.021 25.0478 107.546 23.0574 106.596 21.6058C105.646 20.1543 104.083 19.4285 101.907 19.4285C100.46 19.4285 99.2785 19.7584 98.3617 20.4182C97.456 21.067 96.7877 22.0017 96.357 23.2223C95.9372 24.432 95.7274 25.8835 95.7274 27.577Z" fill="white"/>
<path d="M127.621 26.1254H137.231V38.6285C135.961 39.0464 134.641 39.3818 133.271 39.6347C131.902 39.8766 130.35 39.9976 128.616 39.9976C126.208 39.9976 124.164 39.5248 122.485 38.5791C120.806 37.6333 119.531 36.2368 118.658 34.3894C117.785 32.5419 117.349 30.2711 117.349 27.577C117.349 25.0478 117.835 22.8595 118.807 21.012C119.79 19.1646 121.221 17.7351 123.098 16.7234C124.987 15.7117 127.29 15.2058 130.007 15.2058C131.289 15.2058 132.553 15.3433 133.801 15.6182C135.05 15.8931 136.182 16.2505 137.198 16.6904L135.491 20.7811C134.751 20.4072 133.906 20.0938 132.957 19.8409C132.007 19.588 131.012 19.4615 129.974 19.4615C128.483 19.4615 127.185 19.8024 126.081 20.4842C124.987 21.166 124.137 22.1227 123.529 23.3543C122.933 24.5749 122.634 26.0155 122.634 27.676C122.634 29.2485 122.85 30.645 123.281 31.8656C123.711 33.0753 124.391 34.0265 125.318 34.7193C126.246 35.401 127.456 35.7419 128.947 35.7419C129.676 35.7419 130.289 35.7089 130.786 35.643C131.294 35.566 131.769 35.489 132.211 35.412V30.3811H127.621V26.1254Z" fill="white"/>
<path d="M165 27.577C165 29.4354 164.768 31.1289 164.304 32.6574C163.84 34.1749 163.133 35.4835 162.183 36.5832C161.244 37.6828 160.051 38.5296 158.604 39.1234C157.157 39.7062 155.445 39.9976 153.468 39.9976C151.491 39.9976 149.779 39.7062 148.332 39.1234C146.885 38.5296 145.687 37.6828 144.737 36.5832C143.798 35.4835 143.096 34.1694 142.632 32.6409C142.169 31.1124 141.937 29.4134 141.937 27.544C141.937 25.0478 142.345 22.8759 143.163 21.0285C143.991 19.1701 145.261 17.7296 146.973 16.7069C148.685 15.6842 150.861 15.1729 153.501 15.1729C156.13 15.1729 158.29 15.6842 159.98 16.7069C161.681 17.7296 162.94 19.1701 163.757 21.0285C164.586 22.8869 165 25.0698 165 27.577ZM147.321 27.577C147.321 29.2595 147.531 30.711 147.951 31.9316C148.382 33.1412 149.05 34.076 149.956 34.7358C150.861 35.3845 152.032 35.7089 153.468 35.7089C154.926 35.7089 156.108 35.3845 157.014 34.7358C157.92 34.076 158.577 33.1412 158.985 31.9316C159.405 30.711 159.615 29.2595 159.615 27.577C159.615 25.0478 159.14 23.0574 158.19 21.6058C157.24 20.1543 155.677 19.4285 153.501 19.4285C152.054 19.4285 150.872 19.7584 149.956 20.4182C149.05 21.067 148.382 22.0017 147.951 23.2223C147.531 24.432 147.321 25.8835 147.321 27.577Z" fill="white"/>
<defs>
<clipPath id="clip0_1_272">
<rect width="55.2452" height="55" rx="27.5" fill="white"/>
</clipPath>
</defs>
</svg>
